HIERARCHY
ROOT Hips
{
	OFFSET	0.00	0.00	0.00
	CHANNELS 6 Xposition Yposition Zposition Zrotation Xrotation Yrotation
	JOINT LeftUpLeg
	{
		OFFSET	 0.126116	-0.014019	-0.065224
		CHANNELS 3 Zrotation Xrotation Yrotation
		JOINT LeftLeg
		{
			OFFSET	 0.000000	 0.000000	 0.569914
			CHANNELS 3 Zrotation Xrotation Yrotation
			JOINT LeftFoot
			{
				OFFSET	 0.000000	 0.000000	 0.544423
				CHANNELS 3 Zrotation Xrotation Yrotation
				JOINT LeftToeBase
				{
					OFFSET	 0.000000	 0.000000	 0.207117
					CHANNELS 3 Zrotation Xrotation Yrotation
					End Site
					{
						OFFSET	 0.000000	 0.000000	 0.207117
					}
				}
			}
		}
	}
	JOINT RightUpLeg
	{
		OFFSET	-0.124023	-0.008373	-0.065224
		CHANNELS 3 Zrotation Xrotation Yrotation
		JOINT RightLeg
		{
			OFFSET	 0.000000	 0.000000	 0.570047
			CHANNELS 3 Zrotation Xrotation Yrotation
			JOINT RightFoot
			{
				OFFSET	 0.000000	 0.000000	 0.544354
				CHANNELS 3 Zrotation Xrotation Yrotation
				JOINT RightToeBase
				{
					OFFSET	 0.000000	 0.000000	 0.207540
					CHANNELS 3 Zrotation Xrotation Yrotation
					End Site
					{
						OFFSET	 0.000000	 0.000000	 0.207540
					}
				}
			}
		}
	}
	JOINT Spine
	{
		OFFSET	 0.000184	-0.007763	 0.117403
		CHANNELS 3 Zrotation Xrotation Yrotation
		JOINT Spine1
		{
			OFFSET	 0.000000	 0.000000	 0.137269
			CHANNELS 3 Zrotation Xrotation Yrotation
			JOINT Spine2
			{
				OFFSET	 0.000000	 0.000000	 0.156879
				CHANNELS 3 Zrotation Xrotation Yrotation
				JOINT LeftShoulder
				{
					OFFSET	 0.080501	-0.002496	 0.160144
					CHANNELS 3 Zrotation Xrotation Yrotation
					JOINT LeftArm
					{
						OFFSET	 0.000000	 0.000000	 0.164363
						CHANNELS 3 Zrotation Xrotation Yrotation
						JOINT LeftForeArm
						{
							OFFSET	 0.000000	 0.000000	 0.364576
							CHANNELS 3 Zrotation Xrotation Yrotation
							JOINT LeftHand
							{
								OFFSET	 0.000000	 0.000000	 0.360812
								CHANNELS 3 Zrotation Xrotation Yrotation
								JOINT LeftHandIndex1
								{
									OFFSET	 0.000000	 0.000000	 0.086006
									CHANNELS 3 Zrotation Xrotation Yrotation
									JOINT LeftHandIndex2
									{
										OFFSET	 0.000000	 0.000000	 0.047237
										CHANNELS 3 Zrotation Xrotation Yrotation
										JOINT LeftHandIndex3
										{
											OFFSET	-0.004284	-0.000551	 0.038165
											CHANNELS 3 Zrotation Xrotation Yrotation
											End Site
											{
												OFFSET	-0.004284	-0.000551	 0.038165
											}
										}
									}
								}
							}
						}
					}
				}
				JOINT Neck
				{
					OFFSET	 0.000000	 0.000000	 0.176489
					CHANNELS 3 Zrotation Xrotation Yrotation
					JOINT Head
					{
						OFFSET	 0.000000	-0.001747	 0.077940
						CHANNELS 3 Zrotation Xrotation Yrotation
						End Site
						{
							OFFSET	 0.000000	-0.001747	 0.077940
						}
					}
				}
				JOINT RightShoulder
				{
					OFFSET	-0.080363	 0.000306	 0.159706
					CHANNELS 3 Zrotation Xrotation Yrotation
					JOINT RightArm
					{
						OFFSET	 0.000000	 0.000000	 0.164196
						CHANNELS 3 Zrotation Xrotation Yrotation
						JOINT RightForeArm
						{
							OFFSET	 0.000000	 0.000000	 0.365611
							CHANNELS 3 Zrotation Xrotation Yrotation
							JOINT RightHand
							{
								OFFSET	 0.000000	 0.000000	 0.360648
								CHANNELS 3 Zrotation Xrotation Yrotation
								JOINT RightHandIndex1
								{
									OFFSET	 0.000000	 0.000000	 0.069977
									CHANNELS 3 Zrotation Xrotation Yrotation
									JOINT RightHandIndex2
									{
										OFFSET	 0.000000	 0.000000	 0.052305
										CHANNELS 3 Zrotation Xrotation Yrotation
										JOINT RightHandIndex3
										{
											OFFSET	 0.009002	-0.000782	 0.042196
											CHANNELS 3 Zrotation Xrotation Yrotation
											End Site
											{
												OFFSET	 0.009002	-0.000782	 0.042196
											}
										}
									}
								}
							}
						}
					}
				}
			}
		}
	}
}
MOTION
Frames:    5
Frame Time: 0.03333334
-0.727795	-0.005976	 1.272378	 179.716700	 0.384113	 1.066377	-22.023680	-3.180233	-178.697200	 9.285218	-13.551000	 1.843529	-28.946590	 71.983550	 7.050878	-2.385833	 28.452760	 0.000004	 16.992180	-3.216263	 177.285200	-9.238848	-11.909000	-1.875870	 21.956460	 71.258990	-5.887351	 2.384659	 28.388700	-0.000001	-5.128288	 3.853173	-0.331310	-2.549384	-2.215354	-5.995117	 7.512770	 4.947399	 7.253863	-91.776250	 78.527360	-179.999900	-8.689000	-11.581360	-5.084246	-7.905182	-2.442283	-12.965630	 10.023550	-8.866673	-5.972572	-4.130354	 21.526190	 0.991307	-5.167926	 0.731697	 3.519349	-1.378229	 35.397820	-2.634230	-0.000002	-3.783157	-0.089647	 1.254488	-4.458595	 0.048836	 89.782100	 78.203820	-180.000000	 5.837164	-6.815190	 0.047310	 5.682639	-2.408772	 21.105890	-3.460021	-13.479030	 25.651490	 5.716295	 19.173350	-3.684826	 5.027458	 0.246833	-9.377971	-2.350882	 35.473990	 5.254307
-0.723393	-0.006111	 1.272519	-176.354800	-6.979675	 0.513551	-2.507554	 6.030975	-179.513800	-6.271532	-10.083250	-1.362288	 9.281599	 69.912020	-17.768190	-2.385833	 28.452760	 0.000004	 4.521174	 6.801092	 177.410800	 3.541109	-9.320507	 0.610068	-7.661846	 68.659980	 13.238620	 2.384659	 28.388700	-0.000001	-4.468296	 7.888506	-2.088372	-1.195325	 11.747620	 4.219932	 1.225904	-10.536150	-1.580070	-91.776190	 78.527380	-180.000000	-23.682060	-4.319696	-4.818092	-14.132500	-1.387704	-18.015850	-2.287942	-19.627750	-2.446739	-4.130354	 21.526190	 0.991307	-5.167926	 0.731697	 3.519349	-1.378229	 35.397820	-2.634230	-9.357864	 1.502007	 4.795909	-4.618623	-18.064990	-6.070342	 89.782140	 78.203890	 179.999900	 13.981630	-7.221124	 2.607787	 8.659494	-1.121043	 19.079440	 30.043740	 66.153960	 32.925720	 5.716295	 19.173350	-3.684826	 5.027458	 0.246833	-9.377971	-2.350882	 35.473990	 5.254307
-0.723391	-0.006116	 1.272544	-176.297100	-6.986189	 0.528970	-2.616416	 6.025338	-179.512700	-6.205461	-10.100450	-1.352802	 9.132051	 69.965510	-17.672680	-2.385833	 28.452760	 0.000004	 4.619983	 6.860104	 177.370700	 3.482584	-9.217352	 0.593958	-7.408389	 68.670170	 13.016180	 2.384659	 28.388700	-0.000001	-4.547832	 7.929507	-2.133400	-1.216845	 11.650560	 4.289866	 1.259848	-10.430950	-1.604199	-91.776210	 78.527420	-180.000000	-23.519650	-4.316495	-4.691810	-13.922230	-1.475671	-18.237550	-2.248758	-19.543270	-2.466329	-4.130354	 21.526190	 0.991307	-5.167926	 0.731697	 3.519349	-1.378229	 35.397820	-2.634230	-9.327055	 1.472287	 4.875948	-4.581878	-17.924490	-6.235835	 89.782200	 78.203900	 179.999900	 13.930820	-7.203629	 2.507169	 8.663376	-1.133052	 19.290170	 29.539790	 65.861250	 34.471510	 5.716295	 19.173350	-3.684826	 5.027458	 0.246833	-9.377971	-2.350882	 35.473990	 5.254307
-0.723658	-0.006142	 1.272649	-176.080900	-6.984979	 0.168848	-2.361248	 6.498110	-179.208100	-6.299941	-9.076500	-1.232086	 8.529521	 69.642270	-16.898630	-2.385833	 28.452760	 0.000004	 4.988619	 6.581963	 177.663800	 3.476727	-9.924469	 0.638068	-8.461073	 69.004680	 14.169730	 2.384659	 28.388700	-0.000001	-4.927969	 8.083031	-1.591521	-1.260010	 10.988400	 4.043112	 1.459389	-9.637666	-1.378316	-91.776170	 78.527400	 180.000000	-23.816810	-3.885080	-3.694881	-13.229040	-1.936990	-20.513580	-2.474489	-19.519170	-2.523530	-4.130354	 21.526190	 0.991307	-5.167926	 0.731697	 3.519349	-1.378229	 35.397820	-2.634230	-9.079615	 1.109870	 4.738242	-4.387491	-17.198930	-5.995432	 89.782030	 78.203850	-179.999900	 14.064340	-6.672368	 1.438883	 8.525055	-1.342382	 21.682210	 27.387150	 67.982180	 43.593220	 5.716295	 19.173350	-3.684826	 5.027458	 0.246833	-9.377971	-2.350882	 35.473990	 5.254307
-0.723931	-0.006173	 1.272682	-176.084800	-6.882392	 0.142914	-1.888688	 6.184309	-179.279500	-6.402934	-9.589030	-1.318476	 8.030910	 70.336040	-16.268360	-2.385833	 28.452760	 0.000004	 5.673435	 6.415723	 177.570900	 3.239666	-10.121460	 0.608782	-8.926448	 68.891920	 14.930750	 2.384659	 28.388700	-0.000001	-5.200870	 8.311406	-1.454575	-1.363640	 9.767585	 3.672804	 1.844042	-8.234855	-1.004666	-91.776250	 78.527380	-179.999900	-24.286110	-2.714283	-1.424858	-13.000030	-2.570082	-25.415630	-2.632453	-19.379330	-2.577017	-4.130354	 21.526190	 0.991307	-5.167926	 0.731697	 3.519349	-1.378229	 35.397820	-2.634230	-8.631114	 0.643299	 4.617990	-4.022551	-15.968540	-5.844816	 89.782110	 78.203830	 180.000000	 13.594570	-5.855857	-0.632741	 7.501680	-2.174510	 26.272860	 21.009240	 68.599060	 56.940140	 5.716295	 19.173350	-3.684826	 5.027458	 0.246833	-9.377971	-2.350882	 35.473990	 5.254307
